<svg xmlns="http://www.w3.org/2000/svg" width="27" height="26" fill="none" viewBox="0 0 27 26"><path fill="#FAF8F3" fill-rule="evenodd" d="M10.6202 0.38845C10.3546 0.194225 10.0455 0.0680049 9.71985 0.020822C9.39422 -0.0263608 9.06199 0.00692931 8.75219 0.117783C7.30367 0.648424 5.95834 1.42666 4.77619 2.41778C4.52573 2.63043 4.33111 2.90115 4.20933 3.2063C4.08754 3.51146 4.04229 3.84178 4.07752 4.16845C4.17752 5.17245 4.00019 6.14178 3.51752 6.97645C3.03619 7.81245 2.28419 8.45112 1.36419 8.86578C1.06332 8.99905 0.799672 9.20399 0.596296 9.46269C0.39292 9.72138 0.256006 10.026 0.197524 10.3498C-0.0658415 11.8673 -0.0658415 13.4189 0.197524 14.9365C0.321524 15.6525 0.810858 16.1711 1.36419 16.4218C2.28419 16.8351 3.03619 17.4751 3.51886 18.3098C4.00019 19.1458 4.17752 20.1138 4.07752 21.1178C4.01752 21.7205 4.22019 22.4031 4.77619 22.8685C5.95832 23.8596 7.30366 24.6378 8.75219 25.1685C9.06178 25.2792 9.39378 25.3124 9.71918 25.2652C10.0446 25.2181 10.3535 25.0919 10.6189 24.8978C11.4389 24.3085 12.3682 23.9765 13.3335 23.9765C14.2989 23.9765 15.2269 24.3085 16.0469 24.8978C16.5402 25.2525 17.2335 25.4178 17.9149 25.1685C19.3634 24.6378 20.7087 23.8596 21.8909 22.8685C22.4469 22.4031 22.6509 21.7218 22.5895 21.1178C22.4895 20.1138 22.6655 19.1444 23.1495 18.3098C23.6309 17.4738 24.3829 16.8364 25.3029 16.4218C25.8549 16.1724 26.3455 15.6525 26.4695 14.9365C26.7328 13.4189 26.7328 11.8673 26.4695 10.3498C26.411 10.026 26.2741 9.72138 26.0708 9.46269C25.8674 9.20399 25.6037 8.99905 25.3029 8.86578C24.3829 8.45112 23.6309 7.81245 23.1482 6.97645C22.6655 6.14178 22.4895 5.17245 22.5895 4.16845C22.6246 3.84179 22.5793 3.5115 22.4576 3.20637C22.3358 2.90123 22.1412 2.63051 21.8909 2.41778C20.7087 1.42666 19.3634 0.648424 17.9149 0.117783C17.6052 0.00716055 17.2733 -0.0260078 16.9479 0.0211717C16.6225 0.0683513 16.3136 0.194445 16.0482 0.38845C15.2269 0.97645 14.2975 1.30978 13.3335 1.30978C12.3695 1.30978 11.4402 0.977783 10.6202 0.38845ZM9.33352 12.6431C9.33352 11.5823 9.75495 10.5648 10.5051 9.81469C11.2552 9.06454 12.2727 8.64312 13.3335 8.64312C14.3944 8.64312 15.4118 9.06454 16.162 9.81469C16.9121 10.5648 17.3335 11.5823 17.3335 12.6431C17.3335 13.704 16.9121 14.7214 16.162 15.4715C15.4118 16.2217 14.3944 16.6431 13.3335 16.6431C12.2727 16.6431 11.2552 16.2217 10.5051 15.4715C9.75495 14.7214 9.33352 13.704 9.33352 12.6431Z" clip-rule="evenodd"/></svg>